<?xml version="1.0" encoding="utf-8"?>
<!-- Generator: Adobe Illustrator 28.2.0, SVG Export Plug-In . SVG Version: 6.00 Build 0)  -->
<svg version="1.1" id="Calque_1" xmlns="http://www.w3.org/2000/svg" xmlns:xlink="http://www.w3.org/1999/xlink" x="0px" y="0px"
	 viewBox="0 0 32 32" style="enable-background:new 0 0 32 32;" xml:space="preserve">
<style type="text/css">
	.st0{fill:#4032C8;}
	.st1{fill:#FFFFFF;}
</style>
<g>
	<g>
		<path class="st0" d="M31.6,12.9C30.8,7.3,26.6,2.1,19.3,2c-4.7,0-9.1,1.3-12.9,4.2c-4.3,3.3-6.8,7.6-6.1,13.2c0.3,3,1.6,5.5,4,7.4
			c2.6,2.1,5.7,2.7,8.8,2.8c3.9-0.1,7.5-1,10.9-2.6C29.8,24.2,32.5,19.1,31.6,12.9z"/>
	</g>
	<g>
		<path class="st1" d="M13.2,21.5c-1.1,0-2-0.2-2.8-0.7C9.6,20.4,9,19.7,8.6,19c-0.4-0.8-0.6-1.7-0.6-2.6c0-1.1,0.2-2.1,0.7-2.9
			c0.5-0.8,1.1-1.4,1.8-1.9c0.8-0.4,1.5-0.6,2.4-0.6c0.6,0,1.3,0.1,1.8,0.4c0.6,0.3,1.1,0.6,1.5,1.1c0.4,0.5,0.8,1,1.1,1.6
			c0.3,0.6,0.4,1.3,0.4,1.9c0,0.3-0.1,0.6-0.4,0.7c-0.2,0.2-0.5,0.3-0.8,0.3H9.2l-0.6-1.9h7l-0.4,0.4v-0.5c0-0.4-0.2-0.7-0.4-1
			c-0.2-0.3-0.5-0.5-0.9-0.7S13.2,13,12.9,13c-0.4,0-0.7,0.1-1.1,0.2c-0.3,0.1-0.6,0.3-0.9,0.5c-0.2,0.2-0.4,0.6-0.6,1
			c-0.1,0.4-0.2,0.9-0.2,1.5c0,0.7,0.1,1.3,0.4,1.7c0.3,0.5,0.7,0.8,1.1,1.1c0.5,0.2,0.9,0.4,1.4,0.4c0.5,0,0.8,0,1.1-0.1
			c0.3-0.1,0.5-0.2,0.7-0.3c0.2-0.1,0.3-0.2,0.5-0.3c0.2-0.1,0.4-0.2,0.6-0.2c0.3,0,0.5,0.1,0.7,0.3c0.2,0.2,0.3,0.4,0.3,0.7
			c0,0.3-0.2,0.7-0.5,0.9c-0.3,0.3-0.8,0.5-1.4,0.7C14.5,21.4,13.9,21.5,13.2,21.5z"/>
		<path class="st1" d="M27.3,11.1c0.3,0,0.6,0.1,0.8,0.3c0.2,0.2,0.3,0.5,0.3,0.8v4.9c0,1.3-0.4,2.4-1.1,3.2
			c-0.8,0.8-1.8,1.2-3.2,1.2c-1.4,0-2.5-0.4-3.2-1.2c-0.7-0.8-1.1-1.9-1.1-3.2v-4.9c0-0.3,0.1-0.6,0.3-0.8c0.2-0.2,0.5-0.3,0.8-0.3
			s0.6,0.1,0.8,0.3s0.3,0.5,0.3,0.8v4.9c0,0.8,0.2,1.4,0.5,1.7c0.3,0.4,0.9,0.6,1.5,0.6c0.7,0,1.2-0.2,1.6-0.6
			c0.3-0.4,0.5-1,0.5-1.7v-4.9c0-0.3,0.1-0.6,0.3-0.8S26.9,11.1,27.3,11.1z"/>
	</g>
	<g>
		<circle class="st1" cx="3.8" cy="19.3" r="2"/>
	</g>
</g>
</svg>
